<svg width="59" height="58" viewBox="0 0 59 58" xmlns="http://www.w3.org/2000/svg">
<path d="M25.4269 1.99287C27.8504 0.212143 31.1496 0.212143 33.5731 1.99287C35.0407 3.07125 36.876 3.52362 38.6767 3.25079C41.6501 2.80026 44.5714 4.33352 45.8897 7.0365C46.6881 8.67338 48.103 9.92687 49.8242 10.5221C52.6663 11.505 54.5405 14.2202 54.4517 17.2263C54.3979 19.0466 55.0682 20.8141 56.3156 22.141C58.3755 24.3321 58.7732 27.6074 57.2975 30.2278C56.4039 31.8146 56.1761 33.6911 56.6639 35.4458C57.4696 38.3432 56.2997 41.4281 53.7753 43.0626C52.2466 44.0524 51.1728 45.6081 50.7893 47.3884C50.1562 50.3284 47.6867 52.5162 44.6919 52.7903C42.8783 52.9564 41.2045 53.8348 40.0376 55.2331C38.1107 57.542 34.9073 58.3316 32.1282 57.1826C30.4451 56.4868 28.5549 56.4868 26.8718 57.1826C24.0927 58.3316 20.8893 57.542 18.9624 55.2331C17.7955 53.8348 16.1218 52.9564 14.3081 52.7903C11.3133 52.5162 8.84378 50.3284 8.21065 47.3884C7.82724 45.6081 6.75344 44.0524 5.22472 43.0626C2.70035 41.4281 1.53041 38.3432 2.33605 35.4458C2.82393 33.6911 2.59609 31.8146 1.70247 30.2278C0.226843 27.6074 0.624528 24.3321 2.68438 22.141C3.9318 20.8141 4.6021 19.0466 4.5483 17.2263C4.45946 14.2202 6.33367 11.505 9.17585 10.5221C10.897 9.92687 12.3119 8.67338 13.1103 7.0365C14.4286 4.33352 17.3499 2.80026 20.3233 3.25079C22.124 3.52362 23.9593 3.07125 25.4269 1.99287Z" fill="currentColor"/>
</svg>
