<svg width="31" height="30" viewBox="0 0 31 30" xmlns="http://www.w3.org/2000/svg">
<path d="M15.1529 0.5H15.1529C13.2487 0.49985 11.3631 0.874777 9.60386 1.60337C7.84458 2.33197 6.24604 3.39996 4.89953 4.74637C3.55301 6.09278 2.48489 7.69124 1.75616 9.45046C1.02742 11.2097 0.652344 13.0952 0.652344 14.9994V15.0076C0.652344 15.0077 0.652344 15.0077 0.652344 15.0077C0.652657 18.8512 2.17962 22.5372 4.89739 25.255C7.61516 27.9727 11.3012 29.4997 15.1447 29.5L15.1529 0.5ZM15.1529 0.5C18.9984 0.5 22.6864 2.02761 25.4056 4.74678C28.1247 7.46595 29.6523 11.1539 29.6523 14.9994V15.0076C29.6523 15.0077 29.6523 15.0077 29.6523 15.0077C29.652 18.8512 28.1251 22.5372 25.4073 25.255C22.6895 27.9727 19.0035 29.4997 15.16 29.5C15.16 29.5 15.16 29.5 15.16 29.5M15.1529 0.5L15.16 29.5M15.16 29.5H15.1447H15.16Z" stroke="currentColor" fill="none"/>
<path d="M16.5632 24.5201V16.2052H19.3545L19.7718 12.9658H16.5632V10.8968C16.5632 9.9593 16.8233 9.31969 18.1687 9.31969H19.8853V6.42078C19.0548 6.333 18.22 6.29038 17.3849 6.29309C14.9104 6.29309 13.2162 7.80284 13.2162 10.5764V12.9658H10.4189V16.2052H13.2162V24.5201H16.5632Z" fill="currentColor"/>
</svg>
