<svg width="32" height="32" viewBox="0 0 32 32" xmlns="http://www.w3.org/2000/svg">
<path d="M15.7157 31H15.7311C19.7072 30.9997 23.5204 29.42 26.3319 26.6085C29.1435 23.797 30.7231 19.9838 30.7234 16.0077V15.9994C30.7234 14.0297 30.3355 12.0792 29.5817 10.2594C28.8279 8.43957 27.723 6.78605 26.3302 5.39323C24.9374 4.0004 23.2839 2.89555 21.464 2.14176C19.6442 1.38797 17.6938 1 15.724 1V1C11.7459 1 7.93076 2.58029 5.11783 5.39323C2.30489 8.20616 0.724609 12.0213 0.724609 15.9994V16.0077C0.724923 19.9836 2.3044 23.7966 5.11568 26.6081C7.92696 29.4196 11.7398 30.9994 15.7157 31V31Z" stroke="currentColor" stroke-miterlimit="10" fill="none"/>
<path d="M15.723 9.69442C17.7778 9.69442 18.0202 9.70151 18.8324 9.73934C19.3201 9.74537 19.8031 9.83494 20.2606 10.0042C20.5923 10.1317 20.8936 10.3274 21.1449 10.5787C21.3963 10.83 21.592 11.1313 21.7195 11.4631C21.8887 11.9205 21.9783 12.4036 21.9843 12.8913C22.0221 13.7035 22.0292 13.9458 22.0292 15.9994C22.0292 18.053 22.0221 18.2966 21.9843 19.1088C21.9783 19.5965 21.8887 20.0795 21.7195 20.537C21.592 20.8687 21.3963 21.17 21.1449 21.4214C20.8936 21.6727 20.5923 21.8684 20.2606 21.9959C19.8031 22.1651 19.3201 22.2547 18.8324 22.2607C18.0214 22.2986 17.7778 22.3056 15.723 22.3056C13.6682 22.3056 13.4259 22.2986 12.6148 22.2607C12.1271 22.2547 11.6441 22.1651 11.1867 21.9959C10.8549 21.8684 10.5536 21.6727 10.3023 21.4214C10.051 21.17 9.85524 20.8687 9.72776 20.537C9.55852 20.0795 9.46895 19.5965 9.46293 19.1088C9.4251 18.2966 9.418 18.0542 9.418 15.9994C9.418 13.9447 9.4251 13.7035 9.46293 12.8913C9.46895 12.4036 9.55852 11.9205 9.72776 11.4631C9.85524 11.1313 10.051 10.83 10.3023 10.5787C10.5536 10.3274 10.8549 10.1317 11.1867 10.0042C11.6441 9.83494 12.1271 9.74537 12.6148 9.73934C13.4271 9.70151 13.6694 9.69442 15.723 9.69442ZM15.723 8.30762C13.6351 8.30762 13.3727 8.31708 12.5522 8.35491C11.9143 8.36644 11.283 8.48638 10.6854 8.70959C10.1751 8.9068 9.71167 9.2085 9.32483 9.59533C8.93799 9.98217 8.63629 10.4456 8.43908 10.9559C8.21587 11.5536 8.09594 12.1848 8.0844 12.8227C8.04657 13.6432 8.03711 13.9056 8.03711 15.9935C8.03711 18.0814 8.04657 18.3451 8.0844 19.1655C8.09594 19.8034 8.21587 20.4347 8.43908 21.0323C8.63629 21.5426 8.93799 22.0061 9.32483 22.3929C9.71167 22.7797 10.1751 23.0814 10.6854 23.2787C11.283 23.5019 11.9143 23.6218 12.5522 23.6333C13.3727 23.6712 13.6351 23.6806 15.723 23.6806C17.8109 23.6806 18.0745 23.6712 18.895 23.6333C19.5329 23.6218 20.1642 23.5019 20.7618 23.2787C21.2721 23.0814 21.7356 22.7797 22.1224 22.3929C22.5092 22.0061 22.8109 21.5426 23.0081 21.0323C23.2314 20.4347 23.3513 19.8034 23.3628 19.1655C23.4007 18.3451 23.4101 18.0826 23.4101 15.9935C23.4101 13.9045 23.4007 13.6432 23.3628 12.8227C23.3513 12.1848 23.2314 11.5536 23.0081 10.9559C22.8109 10.4456 22.5092 9.98217 22.1224 9.59533C21.7356 9.2085 21.2721 8.9068 20.7618 8.70959C20.1642 8.48638 19.5329 8.36644 18.895 8.35491C18.0745 8.31708 17.8121 8.30762 15.723 8.30762Z" fill="currentColor"/>
<path d="M15.7234 12.0508C14.9421 12.0508 14.1784 12.2825 13.5288 12.7166C12.8792 13.1506 12.3729 13.7676 12.074 14.4894C11.7751 15.2113 11.6969 16.0055 11.8494 16.7718C12.0019 17.538 12.3783 18.2418 12.9308 18.7942C13.4833 19.3466 14.1872 19.7227 14.9535 19.8749C15.7198 20.0272 16.5141 19.9488 17.2358 19.6497C17.9575 19.3505 18.5744 18.8441 19.0082 18.1943C19.4421 17.5446 19.6736 16.7808 19.6733 15.9995C19.6733 15.4809 19.5712 14.9673 19.3726 14.4881C19.1741 14.009 18.8832 13.5736 18.5164 13.2069C18.1496 12.8402 17.7141 12.5494 17.2349 12.351C16.7557 12.1526 16.2421 12.0506 15.7234 12.0508ZM15.7234 18.5639C15.2162 18.5639 14.7204 18.4135 14.2987 18.1317C13.877 17.8499 13.5483 17.4495 13.3543 16.9809C13.1602 16.5123 13.1094 15.9967 13.2083 15.4993C13.3073 15.0018 13.5515 14.5449 13.9101 14.1863C14.2688 13.8277 14.7257 13.5834 15.2231 13.4845C15.7206 13.3855 16.2362 13.4363 16.7047 13.6304C17.1733 13.8245 17.5738 14.1532 17.8556 14.5749C18.1373 14.9966 18.2877 15.4924 18.2877 15.9995C18.2877 16.6797 18.0176 17.3319 17.5367 17.8128C17.0557 18.2937 16.4035 18.5639 15.7234 18.5639Z" fill="currentColor"/>
<path d="M19.8286 12.8179C20.3386 12.8179 20.752 12.4045 20.752 11.8945C20.752 11.3846 20.3386 10.9712 19.8286 10.9712C19.3187 10.9712 18.9053 11.3846 18.9053 11.8945C18.9053 12.4045 19.3187 12.8179 19.8286 12.8179Z" fill="currentColor"/>
</svg>
