<svg width="27" height="27" viewBox="0 0 27 27" xmlns="http://www.w3.org/2000/svg">
<path d="M13.5 0.5C10.0521 0.500272 6.74549 1.87013 4.30755 4.30827C1.86961 6.7464 0.500001 10.0531 0.500001 13.501C0.499462 15.2078 0.835155 16.898 1.4879 18.475C2.14065 20.052 3.09767 21.485 4.3043 22.6921C5.51094 23.8992 6.94354 24.8568 8.5203 25.5101C10.0971 26.1635 11.7871 26.4999 13.4939 26.5H13.5072C16.9533 26.4997 20.2582 25.1306 22.6949 22.6939C25.1317 20.2571 26.5008 16.9522 26.501 13.5061V13.5061C26.5017 11.7984 26.1659 10.1072 25.5129 8.5293C24.8598 6.95135 23.9023 5.51752 22.6949 4.30972C21.4876 3.10192 20.0542 2.14382 18.4765 1.49014C16.8988 0.836453 15.2078 0.5 13.5 0.5V0.5Z" stroke="currentColor" stroke-width="0.819737" stroke-miterlimit="10" fill="none"/>
<path d="M18.9366 8.17585L6.59238 12.8514C5.91712 13.0461 5.93864 13.7132 6.43765 13.8761L9.53216 14.8413L10.7157 18.4717C10.8601 18.8683 10.9769 19.0179 11.2229 19.022C11.4688 19.0261 11.5805 18.9308 11.8489 18.6931C12.1625 18.399 12.641 17.9348 13.3972 17.1991L16.6147 19.5774C17.2069 19.9042 17.6394 19.7352 17.7828 19.0271L19.8004 9.04682C20.0156 8.1779 19.5032 7.91866 18.9366 8.17585ZM10.0138 14.6139L17.044 10.2078C17.3914 9.97517 17.5 10.2344 17.3432 10.4127L11.5026 15.6641L11.2024 18.2852L10.0138 14.6139Z" fill="currentColor"/>
</svg>
