<svg width="27" height="27" viewBox="0 0 27 27" xmlns="http://www.w3.org/2000/svg">
<path d="M13.499 0.5C10.0511 0.500272 6.74452 1.87013 4.30657 4.30827C1.86863 6.7464 0.499024 10.0531 0.499024 13.501V13.501C0.498486 15.2078 0.834176 16.898 1.48692 18.475C2.13967 20.052 3.09669 21.485 4.30332 22.6921C5.50995 23.8992 6.94256 24.8568 8.51932 25.5101C10.0961 26.1635 11.7861 26.4999 13.4929 26.5H13.5062C16.9523 26.4997 20.2572 25.1306 22.6939 22.6939C25.1307 20.2571 26.4998 16.9522 26.5 13.5061C26.5007 11.7984 26.1649 10.1072 25.5119 8.5293C24.8588 6.95135 23.9013 5.51752 22.6939 4.30972C21.4866 3.10192 20.0532 2.14382 18.4755 1.49014C16.8978 0.836453 15.2068 0.5 13.499 0.5V0.5Z" stroke="currentColor" stroke-width="0.819737" stroke-miterlimit="10" fill="none"/>
<path fill-rule="evenodd" clip-rule="evenodd" d="M13.6193 6.84277C12.4711 6.84328 11.3435 7.14866 10.3519 7.7277C9.36036 8.30675 8.5403 9.13869 7.97557 10.1385C7.41085 11.1383 7.12171 12.2701 7.13772 13.4183C7.15372 14.5665 7.47429 15.6898 8.06666 16.6735L6.89648 20.1573L10.4828 19.0087C11.349 19.4868 12.313 19.7604 13.3012 19.8085C14.2893 19.8566 15.2754 19.6779 16.1839 19.2862C17.0923 18.8944 17.8991 18.3 18.5424 17.5484C19.1857 16.7968 19.6486 15.908 19.8954 14.9499C20.1423 13.9919 20.1666 12.9901 19.9666 12.0212C19.7666 11.0523 19.3475 10.142 18.7415 9.36C18.1355 8.57802 17.3585 7.9451 16.4702 7.50967C15.5818 7.07425 14.6056 6.84787 13.6163 6.84789L13.6193 6.84277ZM13.6193 18.7228C12.5626 18.7249 11.5289 18.4148 10.6478 17.8313L8.57387 18.4943L9.24708 16.4911C8.53654 15.5096 8.17702 14.3175 8.22645 13.1068C8.27587 11.8961 8.73136 10.7373 9.51954 9.81697C10.3077 8.89665 11.3827 8.26841 12.5714 8.03342C13.7601 7.79843 14.9933 7.97037 16.0724 8.52155C17.1515 9.07273 18.0136 9.97107 18.52 11.0719C19.0264 12.1727 19.1475 13.4119 18.8639 14.5899C18.5803 15.768 17.9084 16.8163 16.9564 17.566C16.0045 18.3157 14.828 18.7232 13.6163 18.7228H13.6193ZM16.6595 14.7993C16.4966 14.7102 15.6984 14.2798 15.5488 14.2184C15.3992 14.1569 15.2896 14.1261 15.1738 14.288C15.058 14.4499 14.726 14.8096 14.6256 14.9161C14.5252 15.0227 14.4278 15.033 14.2649 14.9438C13.7839 14.7317 13.3438 14.4369 12.9646 14.0728C12.6152 13.7251 12.3196 13.3273 12.0875 12.8924C11.9963 12.7234 12.0875 12.6373 12.1725 12.5584C12.2576 12.4795 12.3457 12.3709 12.4318 12.2776C12.5031 12.1965 12.5621 12.1054 12.607 12.0071C12.6308 11.9625 12.6433 11.9127 12.6433 11.8621C12.6433 11.8115 12.6308 11.7617 12.607 11.7171C12.568 11.6331 12.2678 10.8062 12.1418 10.4701C12.0157 10.134 11.8774 10.1832 11.7801 10.1791C11.6827 10.175 11.5751 10.1586 11.4634 10.1545C11.3796 10.1532 11.2963 10.1693 11.2191 10.202C11.1418 10.2346 11.0722 10.283 11.0146 10.3441C10.8209 10.5143 10.6647 10.7231 10.556 10.957C10.4473 11.1909 10.3886 11.4449 10.3834 11.7028C10.3537 12.5225 10.9163 13.3259 10.9982 13.4447C11.0802 13.5636 12.0741 15.3229 13.731 16.0494C15.3879 16.7759 15.3982 16.5536 15.7015 16.5372C16.0048 16.5208 16.6964 16.1734 16.8481 15.7922C16.9997 15.4111 17.0131 15.075 16.9741 15.0094C16.9352 14.9438 16.8214 14.8885 16.6595 14.7993Z" fill="currentColor"/>
</svg>
