<svg width="30" height="30" viewBox="0 0 30 30" xmlns="http://www.w3.org/2000/svg">
<path d="M15.0065 29.5C15.0065 29.5 15.0065 29.5 15.0065 29.5C18.8502 29.4997 22.5364 27.9726 25.2542 25.2545C27.972 22.5365 29.4988 18.8502 29.4988 15.0065V14.9994C29.4988 11.1539 27.9712 7.46594 25.252 4.74678C22.5329 2.02761 18.8449 0.5 14.9994 0.5C11.1539 0.5 7.46594 2.02761 4.74677 4.74678C2.02761 7.46594 0.5 11.1539 0.5 14.9994V15.0065C0.5 18.85 2.02668 22.5362 4.74425 25.2541C7.46179 27.9721 11.1476 29.4994 14.9911 29.5H15.0065ZM15.0065 29.5H14.9912H15.0065Z" stroke="currentColor" fill="none"/>
<path d="M19.2657 17.6462C18.993 17.6462 18.8563 17.8547 18.8555 18.2717V18.6902H19.6736V18.2764C19.6736 17.8543 19.5365 17.6462 19.2657 17.6462Z" fill="currentColor"/>
<path d="M21.2649 15.3514C21.1891 15.0054 21.0077 14.6914 20.7457 14.4529C20.4837 14.2144 20.1541 14.0632 19.8025 14.0202C18.1236 13.8334 16.4259 13.8322 14.7341 13.8334C13.0423 13.8346 11.3445 13.8334 9.66571 14.0202C9.31421 14.0631 8.98472 14.2142 8.72274 14.4524C8.46077 14.6907 8.27925 15.0044 8.20325 15.3502C7.9668 16.3753 7.9668 17.4937 7.9668 18.5495C7.9668 19.6052 7.9668 20.7236 8.20325 21.7487C8.27889 22.0944 8.45997 22.4081 8.7215 22.6466C8.98303 22.885 9.31211 23.0364 9.66335 23.0799C11.3422 23.2679 13.0399 23.2679 14.7317 23.2679C16.4235 23.2679 18.1213 23.2679 19.8001 23.0799C20.1516 23.037 20.4811 22.886 20.7431 22.6477C21.005 22.4094 21.1866 22.0957 21.2626 21.7499C21.499 20.7248 21.499 19.6064 21.499 18.5506C21.499 17.4949 21.5014 16.3765 21.2649 15.3514ZM11.8257 16.2736H10.8456V21.4756H9.93646V16.2736H8.97409V15.4212H11.8257V16.2736ZM14.2966 21.4756H13.4785V20.9826C13.1534 21.3562 12.8448 21.537 12.5433 21.537C12.2797 21.537 12.0988 21.4306 12.0172 21.2013C11.9602 20.9826 11.9359 20.7567 11.9451 20.5309V16.9652H12.7621V20.2862C12.7574 20.3923 12.7602 20.4985 12.7703 20.6042C12.7893 20.7307 12.8519 20.7958 12.9607 20.7958C13.125 20.7958 13.2965 20.6693 13.4785 20.4127V16.9652H14.2966V21.4756ZM17.4036 20.1207C17.4148 20.426 17.3874 20.7314 17.3221 21.0299C17.2121 21.3656 16.9934 21.537 16.6683 21.537C16.3774 21.537 16.0961 21.3763 15.8229 21.0381V21.4756H15.0048V15.4212H15.8229V17.3991C16.0866 17.074 16.3668 16.9097 16.6683 16.9097C16.9934 16.9097 17.2121 17.0811 17.3221 17.4192C17.3886 17.717 17.416 18.0223 17.4036 18.3272V20.1207ZM20.4905 19.3676H18.8555V20.168C18.8555 20.5853 18.9926 20.7946 19.2728 20.7946C19.4738 20.7946 19.592 20.6846 19.6381 20.4659C19.6542 20.2816 19.6601 20.0964 19.6559 19.9114H20.4905V20.0297C20.4905 20.2933 20.4811 20.4754 20.474 20.5569C20.4479 20.7325 20.3825 20.8998 20.2825 21.0464C20.1732 21.2059 20.0249 21.3346 19.8516 21.4203C19.6783 21.506 19.4859 21.5458 19.2929 21.5359C19.1028 21.5452 18.9133 21.5079 18.7408 21.4274C18.5684 21.3468 18.4182 21.2254 18.3033 21.0736C18.1295 20.8478 18.0409 20.4919 18.0409 20.0096V18.436C18.0409 17.9536 18.1201 17.6013 18.2939 17.3719C18.407 17.2209 18.5553 17.0997 18.7259 17.0189C18.8965 16.9381 19.0842 16.9002 19.2728 16.9085C19.4593 16.9004 19.6449 16.9385 19.8132 17.0193C19.9815 17.1002 20.1272 17.2213 20.2375 17.3719C20.409 17.6001 20.4905 17.9524 20.4905 18.436V19.3676Z" fill="currentColor"/>
<path d="M16.2299 17.6462C16.1524 17.651 16.0766 17.671 16.0068 17.7051C15.937 17.7392 15.8747 17.7867 15.8232 17.8449V20.596C15.874 20.6552 15.9362 20.7037 16.0061 20.7384C16.0759 20.7731 16.1521 20.7935 16.2299 20.7982C16.4664 20.7982 16.5846 20.596 16.5846 20.1881V18.2622C16.587 17.8543 16.4664 17.6462 16.2299 17.6462Z" fill="currentColor"/>
<path fill-rule="evenodd" clip-rule="evenodd" d="M13.3153 6.89697H12.3896L11.7642 9.29934L11.1139 6.89697H10.1504C10.3431 7.46328 10.5441 8.03431 10.7415 8.6018C10.971 9.23368 11.1579 9.88026 11.3007 10.5372V13.0199H12.217V10.5372L13.3153 6.89697ZM15.765 11.5374V9.94131C15.765 9.45421 15.681 9.09835 15.5084 8.86781C15.3937 8.7222 15.2474 8.60451 15.0806 8.52359C14.9138 8.44267 14.7309 8.40063 14.5455 8.40063C14.3601 8.40063 14.1771 8.44267 14.0103 8.52359C13.8435 8.60451 13.6973 8.7222 13.5825 8.86781C13.4064 9.09835 13.3236 9.45894 13.3236 9.94131V11.5374C13.3236 12.0221 13.4064 12.3815 13.5825 12.6097C13.6973 12.7553 13.8435 12.873 14.0103 12.9539C14.1771 13.0348 14.3601 13.0769 14.5455 13.0769C14.7309 13.0769 14.9138 13.0348 15.0806 12.9539C15.2474 12.873 15.3937 12.7553 15.5084 12.6097C15.681 12.3827 15.765 12.0233 15.765 11.5374ZM14.9374 11.6934C14.9374 12.1155 14.8097 12.3259 14.5425 12.3259C14.2753 12.3259 14.1488 12.1155 14.1488 11.6934V9.77579C14.1488 9.35372 14.2765 9.14446 14.5425 9.14446C14.8085 9.14446 14.9374 9.35372 14.9374 9.77579V11.6934ZM18.8188 13.014V8.4552H17.9912V11.9405C17.8079 12.1994 17.6365 12.3271 17.4698 12.3271C17.3587 12.3271 17.2936 12.2621 17.2759 12.1344C17.2629 12.0277 17.2593 11.9201 17.2653 11.8128V8.4552H16.4377V12.0611C16.428 12.2893 16.4527 12.5177 16.511 12.7385C16.5926 12.975 16.777 13.0779 17.043 13.0779C17.3433 13.0779 17.6578 12.8946 17.9888 12.5175V13.0152L18.8188 13.014Z" fill="currentColor"/>
</svg>
