<svg width="37" height="40" viewBox="0 0 37 40" fill="none" xmlns="http://www.w3.org/2000/svg">
<path d="M18 40L22.3301 32.5H13.6699L18 40Z" fill="#2565AF"/>
<rect width="37" height="33" rx="6" fill="#2565AF"/>
<path d="M12.1198 18.3943L14.9006 18.1239C15.0679 19.0573 15.4059 19.7429 15.9144 20.1806C16.4294 20.6183 17.1213 20.8372 17.9903 20.8372C18.9108 20.8372 19.6028 20.644 20.0663 20.2578C20.5362 19.8652 20.7711 19.4081 20.7711 18.8867C20.7711 18.552 20.6714 18.2688 20.4718 18.037C20.2787 17.7989 19.9375 17.5929 19.4483 17.4191C19.1136 17.3032 18.3508 17.0972 17.16 16.8011C15.628 16.4214 14.553 15.9547 13.935 15.4011C13.066 14.6222 12.6315 13.6727 12.6315 12.5527C12.6315 11.8317 12.8343 11.1591 13.2398 10.5347C13.6518 9.90386 14.2408 9.4243 15.0068 9.09601C15.7792 8.76772 16.7094 8.60358 17.7972 8.60358C19.5739 8.60358 20.9095 8.99302 21.8043 9.7719C22.7055 10.5508 23.1786 11.5904 23.2237 12.8906L20.3656 13.0162C20.2433 12.2888 19.9794 11.7674 19.5739 11.452C19.1748 11.1301 18.5729 10.9692 17.7683 10.9692C16.9379 10.9692 16.2877 11.1398 15.8178 11.4809C15.5153 11.6998 15.364 11.9927 15.364 12.3596C15.364 12.6943 15.5057 12.9808 15.7889 13.2189C16.1494 13.5215 17.0248 13.8369 18.4152 14.1652C19.8056 14.4935 20.8323 14.8346 21.4953 15.1887C22.1648 15.5363 22.6862 16.0158 23.0595 16.6273C23.4393 17.2324 23.6292 17.9823 23.6292 18.8771C23.6292 19.6881 23.4039 20.4477 22.9533 21.1558C22.5027 21.8639 21.8654 22.3917 21.0415 22.7393C20.2176 23.0805 19.1909 23.251 17.9614 23.251C16.1719 23.251 14.7976 22.8391 13.8385 22.0151C12.8793 21.1848 12.3064 19.9778 12.1198 18.3943Z" fill="white"/>
</svg>
