<svg width="56" height="56" viewBox="0 0 56 56" fill="none" xmlns="http://www.w3.org/2000/svg">
<path d="M36.985 0H7.963C7.155 0 6.5 0.655 6.5 1.926V55C6.5 55.345 7.155 56 7.963 56H48.037C48.845 56 49.5 55.345 49.5 55V12.978C49.5 12.282 49.407 12.058 49.243 11.893L37.607 0.257C37.442 0.093 37.218 0 36.985 0Z" fill="#E9E9E0"/>
<path d="M37.5 0.150879V11.9999H49.349L37.5 0.150879Z" fill="#D9D7CA"/>
<path d="M19.5142 33.3242C19.1662 33.3242 18.8322 33.2112 18.5472 32.9982C17.5062 32.2172 17.3662 31.3482 17.4322 30.7562C17.6142 29.1282 19.6272 27.4242 23.4172 25.6882C24.9212 22.3922 26.3522 18.3312 27.2052 14.9382C26.2072 12.7662 25.2372 9.9482 25.9442 8.2952C26.1922 7.7162 26.5012 7.2722 27.0782 7.0802C27.3062 7.0042 27.8822 6.9082 28.0942 6.9082C28.5982 6.9082 29.0412 7.5572 29.3552 7.9572C29.6502 8.3332 30.3192 9.1302 28.9822 14.7592C30.3302 17.5432 32.2402 20.3792 34.0702 22.3212C35.3812 22.0842 36.5092 21.9632 37.4282 21.9632C38.9942 21.9632 39.9432 22.3282 40.3302 23.0802C40.6502 23.7022 40.5192 24.4292 39.9402 25.2402C39.3832 26.0192 38.6152 26.4312 37.7202 26.4312C36.5042 26.4312 35.0882 25.6632 33.5092 24.1462C30.6722 24.7392 27.3592 25.7972 24.6812 26.9682C23.8452 28.7422 23.0442 30.1712 22.2982 31.2192C21.2732 32.6542 20.3892 33.3242 19.5142 33.3242ZM22.1762 28.1982C20.0392 29.3992 19.1682 30.3862 19.1052 30.9422C19.0952 31.0342 19.0682 31.2762 19.5362 31.6342C19.6852 31.5872 20.5552 31.1902 22.1762 28.1982ZM35.8132 23.7562C36.6282 24.3832 36.8272 24.7002 37.3602 24.7002C37.5942 24.7002 38.2612 24.6902 38.5702 24.2592C38.7192 24.0502 38.7772 23.9162 38.8002 23.8442C38.6772 23.7792 38.5142 23.6472 37.6252 23.6472C37.1202 23.6482 36.4852 23.6702 35.8132 23.7562ZM28.3432 17.1742C27.6282 19.6482 26.6842 22.3192 25.6692 24.7382C27.7592 23.9272 30.0312 23.2192 32.1652 22.7182C30.8152 21.1502 29.4662 19.1922 28.3432 17.1742ZM27.7362 8.7122C27.6382 8.7452 26.4062 10.4692 27.8322 11.9282C28.7812 9.8132 27.7792 8.6982 27.7362 8.7122Z" fill="#A2948E"/>
<path d="M48.037 56H7.963C7.155 56 6.5 55.345 6.5 54.537V39H49.5V54.537C49.5 55.345 48.845 56 48.037 56Z" fill="#A2948E"/>
<path d="M17.3851 52.9998H15.7441V42.9238H18.6421C19.0701 42.9238 19.4941 42.9918 19.9131 43.1288C20.3321 43.2658 20.7081 43.4708 21.0411 43.7438C21.3741 44.0168 21.6431 44.3478 21.8481 44.7348C22.0531 45.1218 22.1561 45.5568 22.1561 46.0408C22.1561 46.5518 22.0691 47.0138 21.8961 47.4288C21.7231 47.8438 21.4811 48.1928 21.1711 48.4748C20.8611 48.7568 20.4871 48.9758 20.0501 49.1308C19.6131 49.2858 19.1291 49.3628 18.6011 49.3628H17.3841V52.9998H17.3851ZM17.3851 44.1678V48.1598H18.8891C19.0891 48.1598 19.2871 48.1258 19.4841 48.0568C19.6801 47.9888 19.8601 47.8768 20.0241 47.7218C20.1881 47.5668 20.3201 47.3508 20.4201 47.0728C20.5201 46.7948 20.5701 46.4508 20.5701 46.0408C20.5701 45.8768 20.5471 45.6868 20.5021 45.4738C20.4561 45.2598 20.3631 45.0548 20.2221 44.8588C20.0801 44.6628 19.8821 44.4988 19.6271 44.3668C19.3721 44.2348 19.0341 44.1688 18.6151 44.1688H17.3851V44.1678Z" fill="white"/>
<path d="M32.219 47.6818C32.219 48.5108 32.13 49.2198 31.952 49.8078C31.774 50.3958 31.549 50.8878 31.275 51.2848C31.001 51.6818 30.694 51.9938 30.352 52.2218C30.01 52.4498 29.68 52.6198 29.361 52.7348C29.042 52.8488 28.75 52.9218 28.486 52.9538C28.222 52.9838 28.026 52.9998 27.898 52.9998H24.084V42.9238H27.119C27.967 42.9238 28.712 43.0588 29.354 43.3268C29.996 43.5948 30.53 43.9538 30.954 44.3998C31.378 44.8458 31.694 45.3548 31.904 45.9238C32.114 46.4938 32.219 47.0798 32.219 47.6818ZM27.352 51.7968C28.464 51.7968 29.266 51.4418 29.758 50.7308C30.25 50.0198 30.496 48.9898 30.496 47.6408C30.496 47.2218 30.446 46.8068 30.346 46.3968C30.245 45.9868 30.052 45.6158 29.765 45.2828C29.478 44.9498 29.088 44.6808 28.596 44.4758C28.104 44.2708 27.466 44.1678 26.682 44.1678H25.725V51.7968H27.352Z" fill="white"/>
<path d="M36.2661 44.1678V47.3398H40.4771V48.4608H36.2661V52.9998H34.5981V42.9238H40.9001V44.1678H36.2661Z" fill="white"/>
</svg>
