<svg width="0" height="0" class="hidden">
  <symbol xmlns="http://www.w3.org/2000/svg" viewBox="0 0 9 13" id="ic_arr_hor">
    <path id="Vector 91" d="M7.25 1L1.75 6.5L7.25 12" stroke="currentColor" stroke-width="2" stroke-linecap="round" fill="none"></path>
  </symbol>
  <symbol xmlns="http://www.w3.org/2000/svg" viewBox="0 0 19 36" id="ic_arr_hor2">
    <path d="M18 1L1 18L18 35" stroke="currentColor" fill="none"></path>
  </symbol>
  <symbol xmlns="http://www.w3.org/2000/svg" viewBox="0 0 20 13" id="ic_menu">
    <line x1="4.37114e-08" y1="12.5" x2="20" y2="12.5" stroke="currentColor" fill="none"></line>
    <line x1="8" y1="6.5" x2="20" y2="6.5" stroke="currentColor" fill="none"></line>
    <line x1="4.37114e-08" y1="0.5" x2="20" y2="0.500002" stroke="currentColor" fill="none"></line>
    <line x1="-4.37114e-08" y1="6.5" x2="6" y2="6.5" stroke="currentColor" fill="none"></line>
  </symbol>
  <symbol xmlns="http://www.w3.org/2000/svg" viewBox="0 0 29 33" id="ic_video_play">
    <path d="M27.5833 14.5274C29.1019 15.4041 29.1019 17.5959 27.5833 18.4726L3.66666 32.2809C2.14814 33.1576 0.25 32.0617 0.25 30.3083L0.25 2.6917C0.25 0.93827 2.14815 -0.157625 3.66667 0.719092L27.5833 14.5274Z" fill="currentColor"></path>
  </symbol>
  <symbol xmlns="http://www.w3.org/2000/svg" viewBox="0 0 31 30" id="ic_fb">
    <path d="M15.1529 0.5H15.1529C13.2487 0.49985 11.3631 0.874777 9.60386 1.60337C7.84458 2.33197 6.24604 3.39996 4.89953 4.74637C3.55301 6.09278 2.48489 7.69124 1.75616 9.45046C1.02742 11.2097 0.652344 13.0952 0.652344 14.9994V15.0076C0.652344 15.0077 0.652344 15.0077 0.652344 15.0077C0.652657 18.8512 2.17962 22.5372 4.89739 25.255C7.61516 27.9727 11.3012 29.4997 15.1447 29.5L15.1529 0.5ZM15.1529 0.5C18.9984 0.5 22.6864 2.02761 25.4056 4.74678C28.1247 7.46595 29.6523 11.1539 29.6523 14.9994V15.0076C29.6523 15.0077 29.6523 15.0077 29.6523 15.0077C29.652 18.8512 28.1251 22.5372 25.4073 25.255C22.6895 27.9727 19.0035 29.4997 15.16 29.5C15.16 29.5 15.16 29.5 15.16 29.5M15.1529 0.5L15.16 29.5M15.16 29.5H15.1447H15.16Z" stroke="currentColor" fill="none"></path>
    <path d="M16.5632 24.5201V16.2052H19.3545L19.7718 12.9658H16.5632V10.8968C16.5632 9.9593 16.8233 9.31969 18.1687 9.31969H19.8853V6.42078C19.0548 6.333 18.22 6.29038 17.3849 6.29309C14.9104 6.29309 13.2162 7.80284 13.2162 10.5764V12.9658H10.4189V16.2052H13.2162V24.5201H16.5632Z" fill="currentColor"></path>
  </symbol>
  <symbol xmlns="http://www.w3.org/2000/svg" viewBox="0 0 32 32" id="ic_instagram">
    <path d="M15.7157 31H15.7311C19.7072 30.9997 23.5204 29.42 26.3319 26.6085C29.1435 23.797 30.7231 19.9838 30.7234 16.0077V15.9994C30.7234 14.0297 30.3355 12.0792 29.5817 10.2594C28.8279 8.43957 27.723 6.78605 26.3302 5.39323C24.9374 4.0004 23.2839 2.89555 21.464 2.14176C19.6442 1.38797 17.6938 1 15.724 1V1C11.7459 1 7.93076 2.58029 5.11783 5.39323C2.30489 8.20616 0.724609 12.0213 0.724609 15.9994V16.0077C0.724923 19.9836 2.3044 23.7966 5.11568 26.6081C7.92696 29.4196 11.7398 30.9994 15.7157 31V31Z" stroke="currentColor" stroke-miterlimit="10" fill="none"></path>
    <path d="M15.723 9.69442C17.7778 9.69442 18.0202 9.70151 18.8324 9.73934C19.3201 9.74537 19.8031 9.83494 20.2606 10.0042C20.5923 10.1317 20.8936 10.3274 21.1449 10.5787C21.3963 10.83 21.592 11.1313 21.7195 11.4631C21.8887 11.9205 21.9783 12.4036 21.9843 12.8913C22.0221 13.7035 22.0292 13.9458 22.0292 15.9994C22.0292 18.053 22.0221 18.2966 21.9843 19.1088C21.9783 19.5965 21.8887 20.0795 21.7195 20.537C21.592 20.8687 21.3963 21.17 21.1449 21.4214C20.8936 21.6727 20.5923 21.8684 20.2606 21.9959C19.8031 22.1651 19.3201 22.2547 18.8324 22.2607C18.0214 22.2986 17.7778 22.3056 15.723 22.3056C13.6682 22.3056 13.4259 22.2986 12.6148 22.2607C12.1271 22.2547 11.6441 22.1651 11.1867 21.9959C10.8549 21.8684 10.5536 21.6727 10.3023 21.4214C10.051 21.17 9.85524 20.8687 9.72776 20.537C9.55852 20.0795 9.46895 19.5965 9.46293 19.1088C9.4251 18.2966 9.418 18.0542 9.418 15.9994C9.418 13.9447 9.4251 13.7035 9.46293 12.8913C9.46895 12.4036 9.55852 11.9205 9.72776 11.4631C9.85524 11.1313 10.051 10.83 10.3023 10.5787C10.5536 10.3274 10.8549 10.1317 11.1867 10.0042C11.6441 9.83494 12.1271 9.74537 12.6148 9.73934C13.4271 9.70151 13.6694 9.69442 15.723 9.69442ZM15.723 8.30762C13.6351 8.30762 13.3727 8.31708 12.5522 8.35491C11.9143 8.36644 11.283 8.48638 10.6854 8.70959C10.1751 8.9068 9.71167 9.2085 9.32483 9.59533C8.93799 9.98217 8.63629 10.4456 8.43908 10.9559C8.21587 11.5536 8.09594 12.1848 8.0844 12.8227C8.04657 13.6432 8.03711 13.9056 8.03711 15.9935C8.03711 18.0814 8.04657 18.3451 8.0844 19.1655C8.09594 19.8034 8.21587 20.4347 8.43908 21.0323C8.63629 21.5426 8.93799 22.0061 9.32483 22.3929C9.71167 22.7797 10.1751 23.0814 10.6854 23.2787C11.283 23.5019 11.9143 23.6218 12.5522 23.6333C13.3727 23.6712 13.6351 23.6806 15.723 23.6806C17.8109 23.6806 18.0745 23.6712 18.895 23.6333C19.5329 23.6218 20.1642 23.5019 20.7618 23.2787C21.2721 23.0814 21.7356 22.7797 22.1224 22.3929C22.5092 22.0061 22.8109 21.5426 23.0081 21.0323C23.2314 20.4347 23.3513 19.8034 23.3628 19.1655C23.4007 18.3451 23.4101 18.0826 23.4101 15.9935C23.4101 13.9045 23.4007 13.6432 23.3628 12.8227C23.3513 12.1848 23.2314 11.5536 23.0081 10.9559C22.8109 10.4456 22.5092 9.98217 22.1224 9.59533C21.7356 9.2085 21.2721 8.9068 20.7618 8.70959C20.1642 8.48638 19.5329 8.36644 18.895 8.35491C18.0745 8.31708 17.8121 8.30762 15.723 8.30762Z" fill="currentColor"></path>
    <path d="M15.7234 12.0508C14.9421 12.0508 14.1784 12.2825 13.5288 12.7166C12.8792 13.1506 12.3729 13.7676 12.074 14.4894C11.7751 15.2113 11.6969 16.0055 11.8494 16.7718C12.0019 17.538 12.3783 18.2418 12.9308 18.7942C13.4833 19.3466 14.1872 19.7227 14.9535 19.8749C15.7198 20.0272 16.5141 19.9488 17.2358 19.6497C17.9575 19.3505 18.5744 18.8441 19.0082 18.1943C19.4421 17.5446 19.6736 16.7808 19.6733 15.9995C19.6733 15.4809 19.5712 14.9673 19.3726 14.4881C19.1741 14.009 18.8832 13.5736 18.5164 13.2069C18.1496 12.8402 17.7141 12.5494 17.2349 12.351C16.7557 12.1526 16.2421 12.0506 15.7234 12.0508ZM15.7234 18.5639C15.2162 18.5639 14.7204 18.4135 14.2987 18.1317C13.877 17.8499 13.5483 17.4495 13.3543 16.9809C13.1602 16.5123 13.1094 15.9967 13.2083 15.4993C13.3073 15.0018 13.5515 14.5449 13.9101 14.1863C14.2688 13.8277 14.7257 13.5834 15.2231 13.4845C15.7206 13.3855 16.2362 13.4363 16.7047 13.6304C17.1733 13.8245 17.5738 14.1532 17.8556 14.5749C18.1373 14.9966 18.2877 15.4924 18.2877 15.9995C18.2877 16.6797 18.0176 17.3319 17.5367 17.8128C17.0557 18.2937 16.4035 18.5639 15.7234 18.5639Z" fill="currentColor"></path>
    <path d="M19.8286 12.8179C20.3386 12.8179 20.752 12.4045 20.752 11.8945C20.752 11.3846 20.3386 10.9712 19.8286 10.9712C19.3187 10.9712 18.9053 11.3846 18.9053 11.8945C18.9053 12.4045 19.3187 12.8179 19.8286 12.8179Z" fill="currentColor"></path>
  </symbol>
  <symbol xmlns="http://www.w3.org/2000/svg" viewBox="0 0 27 27" id="ic_telegram">
    <path d="M13.5 0.5C10.0521 0.500272 6.74549 1.87013 4.30755 4.30827C1.86961 6.7464 0.500001 10.0531 0.500001 13.501C0.499462 15.2078 0.835155 16.898 1.4879 18.475C2.14065 20.052 3.09767 21.485 4.3043 22.6921C5.51094 23.8992 6.94354 24.8568 8.5203 25.5101C10.0971 26.1635 11.7871 26.4999 13.4939 26.5H13.5072C16.9533 26.4997 20.2582 25.1306 22.6949 22.6939C25.1317 20.2571 26.5008 16.9522 26.501 13.5061V13.5061C26.5017 11.7984 26.1659 10.1072 25.5129 8.5293C24.8598 6.95135 23.9023 5.51752 22.6949 4.30972C21.4876 3.10192 20.0542 2.14382 18.4765 1.49014C16.8988 0.836453 15.2078 0.5 13.5 0.5V0.5Z" stroke="currentColor" stroke-width="0.819737" stroke-miterlimit="10" fill="none"></path>
    <path d="M18.9366 8.17585L6.59238 12.8514C5.91712 13.0461 5.93864 13.7132 6.43765 13.8761L9.53216 14.8413L10.7157 18.4717C10.8601 18.8683 10.9769 19.0179 11.2229 19.022C11.4688 19.0261 11.5805 18.9308 11.8489 18.6931C12.1625 18.399 12.641 17.9348 13.3972 17.1991L16.6147 19.5774C17.2069 19.9042 17.6394 19.7352 17.7828 19.0271L19.8004 9.04682C20.0156 8.1779 19.5032 7.91866 18.9366 8.17585ZM10.0138 14.6139L17.044 10.2078C17.3914 9.97517 17.5 10.2344 17.3432 10.4127L11.5026 15.6641L11.2024 18.2852L10.0138 14.6139Z" fill="currentColor"></path>
  </symbol>
  <symbol xmlns="http://www.w3.org/2000/svg" viewBox="0 0 27 27" id="ic_whatsapp">
    <path d="M13.499 0.5C10.0511 0.500272 6.74452 1.87013 4.30657 4.30827C1.86863 6.7464 0.499024 10.0531 0.499024 13.501V13.501C0.498486 15.2078 0.834176 16.898 1.48692 18.475C2.13967 20.052 3.09669 21.485 4.30332 22.6921C5.50995 23.8992 6.94256 24.8568 8.51932 25.5101C10.0961 26.1635 11.7861 26.4999 13.4929 26.5H13.5062C16.9523 26.4997 20.2572 25.1306 22.6939 22.6939C25.1307 20.2571 26.4998 16.9522 26.5 13.5061C26.5007 11.7984 26.1649 10.1072 25.5119 8.5293C24.8588 6.95135 23.9013 5.51752 22.6939 4.30972C21.4866 3.10192 20.0532 2.14382 18.4755 1.49014C16.8978 0.836453 15.2068 0.5 13.499 0.5V0.5Z" stroke="currentColor" stroke-width="0.819737" stroke-miterlimit="10" fill="none"></path>
    <path fill-rule="evenodd" clip-rule="evenodd" d="M13.6193 6.84277C12.4711 6.84328 11.3435 7.14866 10.3519 7.7277C9.36036 8.30675 8.5403 9.13869 7.97557 10.1385C7.41085 11.1383 7.12171 12.2701 7.13772 13.4183C7.15372 14.5665 7.47429 15.6898 8.06666 16.6735L6.89648 20.1573L10.4828 19.0087C11.349 19.4868 12.313 19.7604 13.3012 19.8085C14.2893 19.8566 15.2754 19.6779 16.1839 19.2862C17.0923 18.8944 17.8991 18.3 18.5424 17.5484C19.1857 16.7968 19.6486 15.908 19.8954 14.9499C20.1423 13.9919 20.1666 12.9901 19.9666 12.0212C19.7666 11.0523 19.3475 10.142 18.7415 9.36C18.1355 8.57802 17.3585 7.9451 16.4702 7.50967C15.5818 7.07425 14.6056 6.84787 13.6163 6.84789L13.6193 6.84277ZM13.6193 18.7228C12.5626 18.7249 11.5289 18.4148 10.6478 17.8313L8.57387 18.4943L9.24708 16.4911C8.53654 15.5096 8.17702 14.3175 8.22645 13.1068C8.27587 11.8961 8.73136 10.7373 9.51954 9.81697C10.3077 8.89665 11.3827 8.26841 12.5714 8.03342C13.7601 7.79843 14.9933 7.97037 16.0724 8.52155C17.1515 9.07273 18.0136 9.97107 18.52 11.0719C19.0264 12.1727 19.1475 13.4119 18.8639 14.5899C18.5803 15.768 17.9084 16.8163 16.9564 17.566C16.0045 18.3157 14.828 18.7232 13.6163 18.7228H13.6193ZM16.6595 14.7993C16.4966 14.7102 15.6984 14.2798 15.5488 14.2184C15.3992 14.1569 15.2896 14.1261 15.1738 14.288C15.058 14.4499 14.726 14.8096 14.6256 14.9161C14.5252 15.0227 14.4278 15.033 14.2649 14.9438C13.7839 14.7317 13.3438 14.4369 12.9646 14.0728C12.6152 13.7251 12.3196 13.3273 12.0875 12.8924C11.9963 12.7234 12.0875 12.6373 12.1725 12.5584C12.2576 12.4795 12.3457 12.3709 12.4318 12.2776C12.5031 12.1965 12.5621 12.1054 12.607 12.0071C12.6308 11.9625 12.6433 11.9127 12.6433 11.8621C12.6433 11.8115 12.6308 11.7617 12.607 11.7171C12.568 11.6331 12.2678 10.8062 12.1418 10.4701C12.0157 10.134 11.8774 10.1832 11.7801 10.1791C11.6827 10.175 11.5751 10.1586 11.4634 10.1545C11.3796 10.1532 11.2963 10.1693 11.2191 10.202C11.1418 10.2346 11.0722 10.283 11.0146 10.3441C10.8209 10.5143 10.6647 10.7231 10.556 10.957C10.4473 11.1909 10.3886 11.4449 10.3834 11.7028C10.3537 12.5225 10.9163 13.3259 10.9982 13.4447C11.0802 13.5636 12.0741 15.3229 13.731 16.0494C15.3879 16.7759 15.3982 16.5536 15.7015 16.5372C16.0048 16.5208 16.6964 16.1734 16.8481 15.7922C16.9997 15.4111 17.0131 15.075 16.9741 15.0094C16.9352 14.9438 16.8214 14.8885 16.6595 14.7993Z" fill="currentColor"></path>
  </symbol>
  <symbol xmlns="http://www.w3.org/2000/svg" viewBox="0 0 30 30" id="ic_youtube">
    <path d="M15.0065 29.5C15.0065 29.5 15.0065 29.5 15.0065 29.5C18.8502 29.4997 22.5364 27.9726 25.2542 25.2545C27.972 22.5365 29.4988 18.8502 29.4988 15.0065V14.9994C29.4988 11.1539 27.9712 7.46594 25.252 4.74678C22.5329 2.02761 18.8449 0.5 14.9994 0.5C11.1539 0.5 7.46594 2.02761 4.74677 4.74678C2.02761 7.46594 0.5 11.1539 0.5 14.9994V15.0065C0.5 18.85 2.02668 22.5362 4.74425 25.2541C7.46179 27.9721 11.1476 29.4994 14.9911 29.5H15.0065ZM15.0065 29.5H14.9912H15.0065Z" stroke="currentColor" fill="none"></path>
    <path d="M19.2657 17.6462C18.993 17.6462 18.8563 17.8547 18.8555 18.2717V18.6902H19.6736V18.2764C19.6736 17.8543 19.5365 17.6462 19.2657 17.6462Z" fill="currentColor"></path>
    <path d="M21.2649 15.3514C21.1891 15.0054 21.0077 14.6914 20.7457 14.4529C20.4837 14.2144 20.1541 14.0632 19.8025 14.0202C18.1236 13.8334 16.4259 13.8322 14.7341 13.8334C13.0423 13.8346 11.3445 13.8334 9.66571 14.0202C9.31421 14.0631 8.98472 14.2142 8.72274 14.4524C8.46077 14.6907 8.27925 15.0044 8.20325 15.3502C7.9668 16.3753 7.9668 17.4937 7.9668 18.5495C7.9668 19.6052 7.9668 20.7236 8.20325 21.7487C8.27889 22.0944 8.45997 22.4081 8.7215 22.6466C8.98303 22.885 9.31211 23.0364 9.66335 23.0799C11.3422 23.2679 13.0399 23.2679 14.7317 23.2679C16.4235 23.2679 18.1213 23.2679 19.8001 23.0799C20.1516 23.037 20.4811 22.886 20.7431 22.6477C21.005 22.4094 21.1866 22.0957 21.2626 21.7499C21.499 20.7248 21.499 19.6064 21.499 18.5506C21.499 17.4949 21.5014 16.3765 21.2649 15.3514ZM11.8257 16.2736H10.8456V21.4756H9.93646V16.2736H8.97409V15.4212H11.8257V16.2736ZM14.2966 21.4756H13.4785V20.9826C13.1534 21.3562 12.8448 21.537 12.5433 21.537C12.2797 21.537 12.0988 21.4306 12.0172 21.2013C11.9602 20.9826 11.9359 20.7567 11.9451 20.5309V16.9652H12.7621V20.2862C12.7574 20.3923 12.7602 20.4985 12.7703 20.6042C12.7893 20.7307 12.8519 20.7958 12.9607 20.7958C13.125 20.7958 13.2965 20.6693 13.4785 20.4127V16.9652H14.2966V21.4756ZM17.4036 20.1207C17.4148 20.426 17.3874 20.7314 17.3221 21.0299C17.2121 21.3656 16.9934 21.537 16.6683 21.537C16.3774 21.537 16.0961 21.3763 15.8229 21.0381V21.4756H15.0048V15.4212H15.8229V17.3991C16.0866 17.074 16.3668 16.9097 16.6683 16.9097C16.9934 16.9097 17.2121 17.0811 17.3221 17.4192C17.3886 17.717 17.416 18.0223 17.4036 18.3272V20.1207ZM20.4905 19.3676H18.8555V20.168C18.8555 20.5853 18.9926 20.7946 19.2728 20.7946C19.4738 20.7946 19.592 20.6846 19.6381 20.4659C19.6542 20.2816 19.6601 20.0964 19.6559 19.9114H20.4905V20.0297C20.4905 20.2933 20.4811 20.4754 20.474 20.5569C20.4479 20.7325 20.3825 20.8998 20.2825 21.0464C20.1732 21.2059 20.0249 21.3346 19.8516 21.4203C19.6783 21.506 19.4859 21.5458 19.2929 21.5359C19.1028 21.5452 18.9133 21.5079 18.7408 21.4274C18.5684 21.3468 18.4182 21.2254 18.3033 21.0736C18.1295 20.8478 18.0409 20.4919 18.0409 20.0096V18.436C18.0409 17.9536 18.1201 17.6013 18.2939 17.3719C18.407 17.2209 18.5553 17.0997 18.7259 17.0189C18.8965 16.9381 19.0842 16.9002 19.2728 16.9085C19.4593 16.9004 19.6449 16.9385 19.8132 17.0193C19.9815 17.1002 20.1272 17.2213 20.2375 17.3719C20.409 17.6001 20.4905 17.9524 20.4905 18.436V19.3676Z" fill="currentColor"></path>
    <path d="M16.2299 17.6462C16.1524 17.651 16.0766 17.671 16.0068 17.7051C15.937 17.7392 15.8747 17.7867 15.8232 17.8449V20.596C15.874 20.6552 15.9362 20.7037 16.0061 20.7384C16.0759 20.7731 16.1521 20.7935 16.2299 20.7982C16.4664 20.7982 16.5846 20.596 16.5846 20.1881V18.2622C16.587 17.8543 16.4664 17.6462 16.2299 17.6462Z" fill="currentColor"></path>
    <path fill-rule="evenodd" clip-rule="evenodd" d="M13.3153 6.89697H12.3896L11.7642 9.29934L11.1139 6.89697H10.1504C10.3431 7.46328 10.5441 8.03431 10.7415 8.6018C10.971 9.23368 11.1579 9.88026 11.3007 10.5372V13.0199H12.217V10.5372L13.3153 6.89697ZM15.765 11.5374V9.94131C15.765 9.45421 15.681 9.09835 15.5084 8.86781C15.3937 8.7222 15.2474 8.60451 15.0806 8.52359C14.9138 8.44267 14.7309 8.40063 14.5455 8.40063C14.3601 8.40063 14.1771 8.44267 14.0103 8.52359C13.8435 8.60451 13.6973 8.7222 13.5825 8.86781C13.4064 9.09835 13.3236 9.45894 13.3236 9.94131V11.5374C13.3236 12.0221 13.4064 12.3815 13.5825 12.6097C13.6973 12.7553 13.8435 12.873 14.0103 12.9539C14.1771 13.0348 14.3601 13.0769 14.5455 13.0769C14.7309 13.0769 14.9138 13.0348 15.0806 12.9539C15.2474 12.873 15.3937 12.7553 15.5084 12.6097C15.681 12.3827 15.765 12.0233 15.765 11.5374ZM14.9374 11.6934C14.9374 12.1155 14.8097 12.3259 14.5425 12.3259C14.2753 12.3259 14.1488 12.1155 14.1488 11.6934V9.77579C14.1488 9.35372 14.2765 9.14446 14.5425 9.14446C14.8085 9.14446 14.9374 9.35372 14.9374 9.77579V11.6934ZM18.8188 13.014V8.4552H17.9912V11.9405C17.8079 12.1994 17.6365 12.3271 17.4698 12.3271C17.3587 12.3271 17.2936 12.2621 17.2759 12.1344C17.2629 12.0277 17.2593 11.9201 17.2653 11.8128V8.4552H16.4377V12.0611C16.428 12.2893 16.4527 12.5177 16.511 12.7385C16.5926 12.975 16.777 13.0779 17.043 13.0779C17.3433 13.0779 17.6578 12.8946 17.9888 12.5175V13.0152L18.8188 13.014Z" fill="currentColor"></path>
  </symbol>
</svg>